<?xml version="1.0" encoding="utf-8"?>
<!-- Generator: $$$/GeneralStr/196=Adobe Illustrator 27.6.0, SVG Export Plug-In . SVG Version: 6.00 Build 0)  -->
<svg version="1.1" id="Calque_1" xmlns="http://www.w3.org/2000/svg" xmlns:xlink="http://www.w3.org/1999/xlink" x="0px" y="0px"
	 viewBox="0 0 25 24" style="enable-background:new 0 0 25 24;" xml:space="preserve">
<style type="text/css">
	.st0{fill:#E3E3E3;}
</style>
<path class="st0" d="M13.7,0.8C13.5,0.3,12.9,0,12.4,0S11.3,0.3,11,0.8L8,7L1.3,8c-0.6,0.1-1,0.5-1.2,1c-0.2,0.5,0,1.1,0.4,1.5
	l4.9,4.8l-1.2,6.8c-0.1,0.6,0.1,1.1,0.6,1.5c0.5,0.3,1.1,0.4,1.6,0.1l6-3.2l6,3.2c0.5,0.3,1.1,0.2,1.6-0.1c0.5-0.3,0.7-0.9,0.6-1.5
	l-1.2-6.8l4.9-4.8c0.4-0.4,0.5-1,0.4-1.5c-0.2-0.5-0.6-0.9-1.2-1l-6.7-1L13.7,0.8z"/>
</svg>
